<?xml version="1.0" standalone="no"?>
<!DOCTYPE svg PUBLIC "-//W3C//DTD SVG 20010904//EN"
 "http://www.w3.org/TR/2001/REC-SVG-20010904/DTD/svg10.dtd">
<svg version="1.0" xmlns="http://www.w3.org/2000/svg"
 width="768.000000pt" height="768.000000pt" viewBox="0 0 768.000000 768.000000"
 preserveAspectRatio="xMidYMid meet">
<metadata>
Created by potrace 1.11, written by Peter Selinger 2001-2013
</metadata>
<g transform="translate(0.000000,768.000000) scale(0.100000,-0.100000)"
fill="#000000" stroke="none">
<path d="M3580 7665 c-81 -10 -210 -33 -285 -49 -56 -13 -203 -60 -286 -92
-601 -232 -1085 -717 -1318 -1320 -46 -118 -72 -205 -101 -339 -51 -237 -52
-263 -54 -1000 l-1 -640 -175 -1 c-96 -1 -183 -2 -192 -3 -17 -1 -18 -114 -17
-2111 l0 -2110 2689 0 2689 0 0 2109 c0 1637 -3 2110 -12 2113 -7 2 -93 3
-192 3 l-181 -1 0 616 c0 338 -4 660 -8 715 -70 931 -709 1735 -1603 2018 -95
30 -161 46 -293 72 -14 3 -43 7 -65 10 -22 3 -56 8 -75 11 -75 11 -428 11
-520 -1z m570 -784 c306 -67 574 -213 780 -426 95 -98 118 -125 181 -219 144
-214 227 -439 256 -701 4 -33 7 -341 8 -685 l0 -625 -1535 0 -1535 0 1 620 c0
341 3 652 7 690 27 300 165 616 371 849 206 234 448 387 745 471 86 24 108 29
216 45 28 4 129 7 225 5 138 -1 197 -7 280 -24z"/>
</g>
</svg>
